<?xml version="1.0" standalone="no"?>
<!DOCTYPE svg PUBLIC "-//W3C//DTD SVG 20010904//EN"
 "http://www.w3.org/TR/2001/REC-SVG-20010904/DTD/svg10.dtd">
<svg version="1.0" xmlns="http://www.w3.org/2000/svg"
 width="512.000000pt" height="512.000000pt" viewBox="0 0 512.000000 512.000000"
 preserveAspectRatio="xMidYMid meet">

<g transform="translate(0.000000,512.000000) scale(0.100000,-0.100000)"
fill="#000000" stroke="none">
<path d="M1925 4669 c-310 -40 -605 -212 -793 -462 -92 -123 -185 -330 -207
-462 -13 -77 -14 -78 -41 -45 -32 37 -80 48 -122 26 -38 -20 -52 -44 -52 -89
0 -26 20 -63 90 -165 50 -72 99 -136 110 -142 48 -25 82 -13 215 81 72 49 135
100 142 112 18 32 16 68 -7 104 -27 44 -72 54 -133 28 -17 -7 -18 -4 -12 31
14 80 74 237 121 317 63 106 230 275 329 333 184 107 326 140 618 144 33 0 67
49 67 95 0 95 -95 123 -325 94z"/>
<path d="M3332 4665 c-96 -30 -155 -106 -175 -226 l-12 -72 -67 -23 c-37 -12
-95 -36 -130 -53 l-63 -30 -25 19 c-117 92 -212 109 -315 57 -46 -23 -213
-182 -256 -244 -67 -96 -61 -209 15 -310 l43 -57 -32 -70 c-18 -39 -42 -99
-55 -132 l-22 -62 -69 -10 c-124 -19 -206 -88 -229 -195 -7 -32 -11 -112 -8
-207 4 -175 14 -208 84 -270 48 -42 90 -59 163 -66 l59 -7 27 -76 c15 -42 40
-101 56 -133 l28 -56 -33 -44 c-73 -95 -88 -160 -61 -253 15 -52 28 -70 133
-178 127 -129 167 -156 246 -164 70 -7 124 10 193 61 l59 43 65 -32 c35 -18
94 -42 130 -55 l67 -22 6 -51 c16 -122 61 -192 150 -233 47 -22 63 -24 221
-24 157 0 174 2 220 24 54 25 110 81 131 131 7 17 16 58 19 92 l7 61 42 12
c22 6 82 31 132 54 l91 43 57 -43 c89 -67 180 -82 266 -43 54 24 262 225 291
281 46 90 34 189 -36 282 l-44 59 33 66 c18 36 43 96 55 132 l22 66 59 6 c107
12 177 56 223 142 19 35 22 59 25 206 4 184 -3 225 -48 287 -40 56 -105 91
-189 104 l-70 10 -17 52 c-9 28 -34 87 -54 131 l-37 81 38 49 c68 88 84 168
53 261 -14 40 -40 72 -143 176 -116 116 -131 128 -184 143 -93 27 -161 11
-255 -61 l-43 -32 -67 30 c-37 17 -96 41 -132 54 l-64 23 -12 68 c-21 125 -79
199 -178 228 -65 19 -322 19 -384 0z m342 -198 c12 -9 21 -40 30 -115 17 -131
25 -139 158 -182 56 -17 144 -54 196 -81 52 -27 107 -49 122 -49 19 0 57 21
115 65 48 36 95 65 103 65 24 0 212 -192 212 -217 0 -12 -18 -44 -41 -73 -63
-80 -89 -121 -89 -141 0 -11 27 -74 60 -142 32 -67 68 -156 79 -197 28 -101
54 -125 147 -134 94 -10 141 -23 148 -42 3 -9 6 -75 6 -149 0 -109 -3 -135
-16 -146 -8 -7 -59 -18 -111 -25 -129 -16 -138 -24 -178 -153 -18 -56 -56
-148 -85 -204 -40 -77 -50 -107 -46 -130 3 -15 33 -63 66 -106 33 -43 60 -86
60 -96 0 -26 -189 -215 -215 -215 -11 0 -56 27 -99 60 -44 33 -90 63 -103 66
-18 5 -55 -8 -136 -49 -62 -31 -152 -68 -201 -83 -127 -39 -134 -47 -151 -172
-7 -56 -19 -109 -25 -117 -17 -21 -292 -22 -309 -2 -6 8 -17 60 -25 117 -18
127 -27 137 -151 174 -49 15 -140 53 -201 83 -82 41 -118 54 -136 50 -14 -4
-60 -34 -103 -67 -43 -33 -87 -60 -98 -60 -25 0 -217 188 -217 212 0 9 29 55
65 103 37 50 65 98 65 111 0 13 -27 79 -60 147 -32 67 -68 156 -80 197 -29
107 -44 119 -170 135 -79 9 -106 16 -117 30 -20 28 -19 278 2 298 14 15 35 20
145 33 30 3 67 12 81 20 28 14 30 18 79 164 17 52 52 133 77 179 57 107 55
125 -26 228 -34 41 -61 83 -61 92 0 9 47 63 105 121 l104 104 33 -17 c18 -9
61 -39 96 -67 44 -34 72 -50 93 -50 16 0 66 20 112 44 45 25 125 59 177 76
146 49 150 51 165 79 7 15 17 60 21 101 7 81 19 120 37 132 21 14 271 9 291
-5z"/>
<path d="M3330 4031 c-193 -41 -341 -122 -485 -266 -118 -118 -182 -218 -231
-362 -45 -132 -58 -223 -51 -368 11 -249 104 -459 279 -633 134 -133 273 -211
454 -258 80 -20 123 -25 224 -25 245 0 433 66 623 219 129 104 264 301 250
365 -12 58 -91 95 -144 66 -11 -5 -41 -42 -66 -82 -153 -238 -381 -367 -653
-368 -61 -1 -133 6 -172 15 -287 67 -507 286 -579 576 -28 110 -23 288 11 395
79 252 287 454 535 520 84 23 246 30 330 16 202 -35 390 -157 502 -325 75
-112 90 -126 139 -126 46 0 88 32 96 74 17 87 -160 310 -336 427 -210 139
-482 191 -726 140z"/>
<path d="M3391 3574 c-83 -22 -150 -62 -222 -134 -103 -101 -149 -211 -149
-354 0 -98 16 -163 61 -247 87 -162 255 -262 444 -263 229 0 427 148 490 367
19 67 22 205 5 268 -46 171 -195 319 -365 364 -73 19 -192 18 -264 -1z m264
-213 c239 -113 236 -447 -5 -559 -74 -35 -172 -36 -248 -3 -66 30 -144 113
-166 177 -36 105 -13 227 58 311 85 100 239 132 361 74z"/>
<path d="M4332 3155 c-55 -47 -44 -130 21 -161 100 -48 186 78 108 157 -38 38
-87 39 -129 4z"/>
<path d="M1035 2861 c-78 -20 -138 -84 -155 -166 -7 -36 -18 -58 -28 -62 -10
-3 -43 -17 -75 -31 -57 -25 -60 -25 -85 -8 -79 51 -170 63 -233 30 -47 -24
-187 -161 -210 -206 -40 -78 -34 -156 18 -226 l25 -34 -34 -81 c-34 -80 -35
-82 -76 -89 -51 -9 -90 -29 -124 -65 -47 -50 -58 -91 -58 -226 0 -112 2 -128
25 -174 31 -60 82 -99 148 -112 27 -5 49 -10 51 -12 2 -2 18 -39 36 -81 l32
-77 -25 -33 c-46 -62 -56 -119 -35 -192 15 -50 162 -207 223 -239 64 -33 140
-29 205 11 l52 33 79 -33 78 -32 11 -50 c15 -71 52 -120 113 -151 46 -22 63
-25 166 -25 64 0 133 5 154 11 75 20 146 111 147 185 0 28 5 33 53 52 28 11
66 26 83 33 28 11 34 10 65 -13 74 -57 164 -59 243 -6 64 41 182 171 196 214
20 61 8 147 -26 195 l-31 42 33 75 c35 79 45 92 82 92 36 0 97 36 131 77 40
49 55 122 49 249 -4 82 -9 108 -29 144 -31 56 -92 99 -153 108 l-47 7 -32 80
-32 80 29 43 c24 33 31 56 34 105 6 86 -14 120 -130 233 -80 77 -102 93 -141
102 -68 14 -130 -1 -198 -50 -12 -8 -33 -4 -96 22 l-81 33 -6 47 c-8 60 -52
122 -108 152 -37 19 -61 23 -163 25 -66 1 -133 -2 -150 -6z m225 -203 c0 -7 5
-42 10 -77 11 -76 33 -104 98 -121 26 -7 95 -35 154 -62 122 -56 126 -56 205
3 29 22 56 39 60 39 10 0 123 -112 123 -122 0 -5 -18 -31 -40 -59 -59 -75 -60
-86 -7 -197 25 -54 53 -122 62 -153 21 -76 45 -96 128 -108 36 -5 71 -12 77
-16 5 -3 10 -43 10 -90 0 -94 9 -85 -102 -100 -68 -9 -92 -33 -118 -117 -12
-40 -39 -107 -61 -150 -21 -43 -39 -86 -39 -96 0 -18 20 -53 72 -122 l22 -30
-63 -64 -64 -64 -59 44 c-76 55 -102 56 -204 5 -44 -22 -103 -46 -133 -55 -97
-28 -114 -50 -126 -159 l-7 -58 -91 3 -92 3 -7 68 c-11 97 -23 110 -131 147
-51 17 -116 44 -146 60 -79 43 -114 40 -186 -16 l-59 -45 -64 64 -65 65 47 59
c57 73 58 99 12 192 -19 37 -46 104 -61 149 -30 91 -48 109 -122 118 -100 11
-93 3 -93 104 0 50 3 90 8 90 43 1 138 22 157 34 16 10 32 42 50 98 15 46 42
111 61 146 46 86 45 115 -11 191 l-46 62 57 59 c31 33 63 60 71 60 8 0 34 -16
57 -35 77 -63 93 -64 199 -12 50 25 118 53 149 62 32 9 67 24 78 33 22 18 39
75 40 133 0 20 3 39 7 42 3 4 46 7 95 7 64 0 88 -3 88 -12z"/>
<path d="M1027 2215 c-265 -73 -439 -351 -383 -614 31 -149 115 -272 240 -353
172 -111 406 -109 579 6 228 152 304 456 174 700 -62 118 -191 220 -326 260
-66 19 -215 20 -284 1z m285 -214 c63 -30 121 -88 155 -153 25 -47 28 -64 28
-148 0 -81 -4 -103 -25 -145 -77 -159 -277 -234 -432 -163 -129 59 -202 171
-202 308 -1 66 4 85 32 142 39 79 101 138 176 168 71 28 201 24 268 -9z"/>
<path d="M4112 1301 c-133 -24 -156 -30 -179 -54 -58 -58 -22 -152 63 -166
l37 -6 -61 -76 c-180 -223 -450 -352 -742 -353 -167 -1 -304 31 -452 105 -74
38 -111 37 -149 0 -22 -22 -29 -39 -29 -68 0 -54 18 -75 103 -117 202 -99 427
-141 634 -117 332 39 623 200 812 451 l58 78 12 -37 c16 -54 44 -76 98 -76 37
0 49 5 69 28 30 35 30 65 3 222 -24 139 -34 172 -63 190 -38 23 -59 23 -214
-4z"/>
</g>
</svg>
